<?xml version="1.0" standalone="no"?><!DOCTYPE svg PUBLIC "-//W3C//DTD SVG 1.1//EN" "http://www.w3.org/Graphics/SVG/1.1/DTD/svg11.dtd"><svg t="1515208860244" class="icon" style="" viewBox="0 0 1057 1024" version="1.1" xmlns="http://www.w3.org/2000/svg" p-id="973" xmlns:xlink="http://www.w3.org/1999/xlink" width="206.4453125" height="200"><defs><style type="text/css"></style></defs><path d="M250.144224 300.724843l17.401664 24.162023 2.503837-30.296422 29.169696-8.262661-27.166627-12.268799-1.502302-31.297957-20.030693 21.032227-29.670463-9.139004 14.897828 27.166627-16.900897 23.536064 31.297957-4.632098z m183.030453-91.76561l21.032227-21.032227 27.166627 12.268799-12.268799-26.165092 18.403198-24.162023-28.168161 3.129796-15.899362-25.664325-6.1344 29.795655-27.166627 7.135934 25.664325 15.899363-2.629028 28.79412z m-280.429696 216.456671l26.66586-13.896293 24.162023 16.900897-7.761894-28.668928 23.536064-16.900897-28.668929-2.503837-11.768031-28.168161-10.766498 25.664325-29.795655 1.001534 22.534529 20.53146c-1.001535-1.251918-8.137469 26.0399-8.137469 26.0399z m83.50295 48.198854l18.403199-10.766497c11.267265-74.363946 54.834021-143.09426 124.565869-184.031988 69.731848-41.06292 151.231729-45.069058 221.464344-19.029158l18.403199-10.766497c-77.994509-33.301026-169.760119-30.79719-248.130204 15.398595C292.709445 310.489806 245.011359 389.48585 236.247931 473.614758z m320.49108-275.422022l26.66586-12.769567 21.032227 20.53146-2.503836-28.668928 25.664324-16.40013-27.166626-6.635167-6.1344-29.795655-15.899362 25.664325-28.168162-2.503837 19.029158 24.162023-12.519183 26.415476z m246.127135 360.552466l-18.403199 10.766497c-11.768032 74.363946-55.334788 143.09426-125.066636 184.031987-70.232616 41.06292-151.231729 45.695017-222.090304 19.529926l-18.403199 10.766497c77.994509 33.301026 170.260887 30.79719 249.256931-15.899362 78.370085-45.695017 125.567404-124.691061 134.706407-209.195545zM322.379909 214.592865l7.636701 28.168162 12.2688-26.66586 29.795655 2.00307-20.53146-20.53146 9.264195-29.169696-25.163557 12.268799-24.162023-18.403199 4.632097 29.795655-23.035296 15.899362c-0.375575 0.500767 29.294888 6.635167 29.294888 6.635167zM794.728677 727.378594l-16.900897-23.536063-2.503836 29.795655-28.668929 8.26266 26.66586 12.2688 1.502301 30.296422 19.529926-20.53146 28.668928 9.264195-14.39706-26.665859 16.40013-23.035296-30.296423 3.880946z m89.261774-132.82853L856.823824 608.947125l-24.162023-16.40013 7.636702 28.668929-24.162023 17.401664 29.169696 2.503837 11.768032 28.168161 11.267264-25.664325 30.296423-1.001534-22.534529-20.030693 7.887085-28.04297z" p-id="974"></path><path d="M909.028816 281.32011C781.959111 64.362671 502.906525-8.498973 286.074279 118.695925 69.11684 245.890822-3.744804 524.818216 123.450094 741.775655 250.644991 958.607901 529.572385 1031.469545 746.529823 904.274648c216.832247-126.568938 289.693891-405.621524 162.498993-622.954538zM740.896191 895.010452C529.071617 1019.200746 257.280158 948.342171 133.215056 736.64279S79.883337 253.026757 291.707911 128.961655C503.407293 4.896553 775.198752 75.629936 899.263854 287.454509c124.190294 211.198614 52.830952 483.490841-158.367663 607.555943z" p-id="975"></path><path d="M489.636191 844.307762l-26.665859 12.268799-21.032227-21.032227 3.129796 29.169696-25.163558 16.525321 27.166627 6.635167L453.706137 917.670173l15.398595-25.664324 27.667394 3.129795-19.029158-24.162023 11.893223-26.665859zM708.596699 789.974508l-12.268799 26.66586-29.795655-2.003069 20.53146 20.53146-9.264195 29.169696 25.163557-12.769567 24.162023 18.403199-4.632098-29.795655 23.536064-15.899363-29.795655-6.134399-7.636702-28.168162z m-95.396173 30.171231l-21.532994 21.532995-27.667394-12.2688 12.769566 27.166627-19.029158 25.163558 28.668929-3.129796 16.400129 26.165092 6.1344-30.296422 28.168161-7.135935-26.665859-16.400129 2.75422-30.79719z" p-id="976"></path><path d="M957.728438 253.026757C814.75937 9.027883 500.903456-72.597189 257.280158 70.497071c-244.124065 143.09426-325.623946 456.950174-182.529686 700.44828 143.09426 244.124065 456.950174 325.623946 700.44828 182.529685 244.124065-142.969068 325.623946-456.824982 182.529686-700.448279zM768.563585 942.708539C530.573919 1082.297428 224.980666 1002.299849 85.51697 764.310184c-139.463697-237.989666-59.466118-544.083686 178.398355-683.547383C501.904991-58.700896 807.999011 21.296682 947.5879 259.161156c138.962929 237.989666 58.965351 544.083686-179.024315 683.547383z" p-id="977"></path><path d="M179.536033 651.261963l18.403198-10.766498L215.215704 669.790353l128.07124-74.989905-32.1743-55.084404-154.486716 90.513692-9.264195-15.899363L319.75088 513.42576l58.464584 99.777887-18.027623 10.516113-7.636702-13.01995-128.07124 74.989905 36.430822 62.345531c7.636702 13.145142 17.77724 16.024554 30.171231 8.763428l105.536711-61.844763c12.268799-7.135934 17.15128-15.899362 14.522252-26.290284-2.503837-10.26573-7.386318-23.035296-14.647444-38.3087 7.010742-0.876343 14.39706-2.253453 22.158954-4.381714 6.635167 16.024554 11.517648 29.169696 14.39706 39.310234 5.132865 18.653582-2.128261 33.676602-21.783378 45.319442l-113.924564 66.727245c-21.90857 12.769566-39.435426 7.887085-52.580568-14.647444l-65.224942-111.420727zM401.501144 511.047115l45.319442-26.540668c-5.258057-17.026089-11.768032-34.92852-19.655117-54.08287l19.529925-8.26266c7.010742 17.652048 13.145142 34.803328 18.278007 51.704225l118.306278-69.231081 9.264195 15.899362-122.312416 71.484534c3.004604 10.891689 5.383249 21.658186 7.51151 32.1743l106.287862-62.220339 8.638236 14.772636c4.256522 28.919312 1.37711 57.588241-8.638236 86.25717 27.166627 0.375575 55.585172-4.757289 85.130443-15.523787-2.253453 10.891689-3.755755 19.780309-4.506905 26.791051-27.291819 5.758824-56.711898 8.137469-88.385431 7.135934-11.392456 23.035296-31.172765 50.201923-59.340927 81.374689-7.386318-3.380179-14.772636-6.1344-22.158954-8.387853 29.795655-29.670463 50.327115-54.708829 61.719572-75.115097-28.168161-5.132865-53.456911-17.526856-75.741056-37.181973 7.261126 48.324046 4.757289 92.892337-7.386318 133.704873-7.010742-3.129796-13.645909-5.758824-19.905501-7.887085 15.148211-47.94847 14.647444-103.032875-1.502302-165.378405l-59.466118 34.803328-9.389387-16.024554c-2.128261-17.026089-4.757289-33.801794-7.887086-50.327115l20.155885-5.383249c2.378645 15.648979 4.381714 30.671998 6.134399 45.444634z m85.380827-95.771749l2.378645-17.526856c19.15435 0.625959 37.933124 2.003069 56.461515 4.006139l-3.38018 20.656651c-18.653582-3.129796-37.056781-5.633632-55.45998-7.135934z m86.757937 72.611261L496.271358 533.206069c18.027623 16.024554 40.687344 25.539133 68.104355 28.668928 9.514579-26.0399 12.644375-50.827882 9.264195-73.98837zM704.715753 344.667175l17.15128-10.015346 19.279542 32.925451 66.226477-38.684275 43.441564 74.113562c9.890154 16.900897 7.636702 29.545271-6.88555 37.933124-3.755755 2.128261-14.39706 8.387852-32.049108 18.528391-3.630563-4.256522-8.137469-9.264195-13.520718-15.398595 14.772636-7.51151 23.661256-12.143607 26.415476-13.771101 9.764963-5.258057 11.893224-12.519183 6.635167-21.658187L799.485967 354.306946l-49.325581 28.79412 61.844764 105.536712-17.151281 10.015346-61.844763-105.536711-48.198854 28.168161 52.330184 89.261774-16.900897 9.890154-49.450772-84.504484c-2.128261 18.403199-5.132865 36.806398-9.139003 55.209596-6.635167-3.004604-13.395526-5.50844-20.656652-7.261126 10.140538-42.690413 14.647444-84.2541 13.395526-124.565869l-60.592845 35.429287-9.013812-15.398595 68.47993-40.061385c-1.001535-13.145142-2.629028-26.290284-4.882481-39.435426l20.907035-3.004603c1.37711 10.390922 2.503837 20.781844 3.38018 31.047573l119.433004-69.85704 9.013811 15.398595L673.918563 348.047354c0.876343 19.780309 0.625959 39.560618-0.500767 59.215735l50.70269-29.670463-19.404733-32.925451z" p-id="978"></path></svg>